<?xml version="1.0" standalone="no"?>
<!DOCTYPE svg PUBLIC "-//W3C//DTD SVG 20010904//EN"
 "http://www.w3.org/TR/2001/REC-SVG-20010904/DTD/svg10.dtd">
<svg version="1.0" xmlns="http://www.w3.org/2000/svg"
 width="75.000000pt" height="60.000000pt" viewBox="0 0 75.000000 60.000000"
 preserveAspectRatio="xMidYMid meet">
<metadata>
Created by potrace 1.10, written by Peter Selinger 2001-2011
</metadata>
<g transform="translate(0.000000,60.000000) scale(0.100000,-0.100000)"
fill="#000000" stroke="none">
<path d="M347 484 c-4 -4 -7 -15 -7 -24 0 -9 -17 -24 -40 -34 -46 -20 -87 -69
-96 -115 -4 -17 -11 -34 -15 -37 -16 -9 -10 -43 11 -64 18 -18 33 -20 178 -20
145 0 160 2 180 20 23 22 29 54 12 65 -5 3 -10 16 -10 29 0 36 -54 102 -99
122 -25 11 -41 25 -43 38 -2 15 -11 22 -33 24 -17 2 -34 0 -38 -4z m113 -86
c39 -27 67 -63 75 -98 l6 -25 -161 0 -161 0 6 25 c16 66 85 120 155 120 32 0
57 -7 80 -22z m90 -158 c0 -22 -46 -30 -170 -30 -124 0 -170 8 -170 30 0 6 67
10 170 10 103 0 170 -4 170 -10z"/>
</g>
</svg>
