<svg version="1.1" id="Layer_1" xmlns="http://www.w3.org/2000/svg" xmlns:xlink="http://www.w3.org/1999/xlink" x="0px" y="0px"
	 width="100%" viewBox="0 0 336 288" enable-background="new 0 0 336 288" xml:space="preserve">
<path fill="#000000" opacity="1.000000" stroke="none" 
	d="
M150.821960,235.907623 
	C122.828331,245.733887 95.198761,255.416367 67.555023,265.058228 
	C64.055695,266.278748 60.406307,266.776367 56.725971,266.110474 
	C48.861626,264.687561 44.675236,257.238403 47.458851,248.848648 
	C51.545750,236.530838 56.008942,224.337387 60.349068,212.104172 
	C70.085526,184.660706 79.869995,157.234222 89.583534,129.782654 
	C93.886398,117.622276 100.311813,113.933838 112.969513,116.338776 
	C115.546906,116.828476 117.983704,118.164497 121.003426,117.813400 
	C123.554924,109.645226 122.473038,101.417801 121.224945,93.261971 
	C120.196251,86.539856 118.655464,79.896286 117.349350,73.216400 
	C115.668991,64.622475 119.704010,56.718307 127.098541,54.102737 
	C134.930588,51.332409 144.105927,54.715832 148.073425,62.241039 
	C152.111237,69.899643 153.025375,78.489967 153.943787,86.878677 
	C155.494446,101.041969 153.519684,114.782440 146.909103,127.650108 
	C144.413666,132.507538 147.287369,137.810440 152.650391,138.593735 
	C154.483093,138.861404 155.344604,137.609726 156.300339,136.458923 
	C159.385910,132.743652 162.452408,129.012375 165.560760,125.316277 
	C166.412155,124.303879 167.270432,123.235336 168.327286,122.471756 
	C170.044189,121.231293 171.938812,120.638687 173.740417,122.433990 
	C175.492920,124.180351 175.220520,126.109802 173.887924,127.851044 
	C170.346710,132.478088 166.870438,137.175064 163.029907,141.546936 
	C159.459717,145.611069 162.754990,147.683105 164.913971,150.329941 
	C167.434982,153.420593 169.458344,151.703125 171.626862,149.928711 
	C185.290970,138.747910 198.933105,127.539581 212.677185,116.457779 
	C215.531311,114.156494 215.923889,112.430542 213.107346,109.717957 
	C209.044022,105.804611 205.360001,101.497429 201.203522,97.023994 
	C195.928528,101.067070 193.057541,105.988708 189.380402,110.147171 
	C186.811996,113.051773 184.063629,118.132309 179.952347,114.547112 
	C175.988556,111.090530 180.922897,107.879898 183.161270,105.088379 
	C186.285660,101.191910 189.582916,97.431137 192.876953,93.674339 
	C197.214127,88.727905 201.870926,88.263496 206.769638,92.578796 
	C211.390869,96.649696 215.807648,100.960251 220.199203,105.282364 
	C225.435043,110.435410 225.178177,115.986977 219.533020,120.706078 
	C205.736221,132.239578 191.883621,143.706421 178.108673,155.265854 
	C176.111618,156.941711 172.840164,158.182831 175.187653,161.988815 
	C178.682907,167.655670 181.362076,169.265152 185.673553,167.453857 
	C203.434891,159.992096 221.472122,161.542221 239.554413,165.794724 
	C242.760178,166.548660 246.072052,166.976303 249.132797,168.473526 
	C257.511993,172.572342 261.499298,181.907471 258.226379,190.189667 
	C254.632538,199.283951 246.990753,202.385941 237.057861,199.397690 
	C225.413757,195.894638 213.571625,193.190887 201.285873,193.331268 
	C199.661636,193.349823 197.943497,192.962906 196.148758,194.203201 
	C196.644897,197.624084 197.206726,201.173309 197.666748,204.735657 
	C198.705338,212.778091 195.975632,218.331757 188.550201,221.781006 
	C176.467133,227.393814 163.804260,231.537186 150.821960,235.907623 
M107.162918,156.350235 
	C104.718613,154.922424 102.325401,153.397141 99.820763,152.084457 
	C91.115959,147.522202 91.340157,147.646790 87.755493,156.518402 
	C85.954536,160.975540 86.855988,163.155731 91.010330,165.620682 
	C114.058411,179.296173 132.510345,197.806564 146.815399,220.413406 
	C151.362839,227.599915 151.128891,227.747940 159.196060,224.889267 
	C165.223251,222.753479 165.534485,222.164749 162.873169,216.331528 
	C157.911194,205.455582 150.656860,196.125763 142.901367,187.154266 
	C140.941162,184.886719 138.970078,182.428650 141.908981,179.851059 
	C144.756760,177.353378 146.900314,179.942551 148.609741,181.864716 
	C156.603714,190.853561 163.809174,200.445175 169.183640,211.248413 
	C173.280640,219.483841 173.109070,219.569214 181.442093,216.550644 
	C188.408173,214.027222 191.011551,209.406677 189.241837,202.180939 
	C187.850632,196.500641 185.657944,191.093246 182.597977,186.090103 
	C172.421371,169.451035 159.849014,154.885971 144.518661,142.797974 
	C134.171356,134.639114 123.579422,126.791130 110.256065,124.080925 
	C102.335320,122.469704 99.166763,124.907013 95.922485,134.690079 
	C94.015472,140.440689 94.015228,140.441208 102.143646,144.386444 
	C102.743034,144.677353 103.360481,144.932404 103.951790,145.238419 
	C115.141220,151.029266 124.931259,158.744156 134.139435,167.249863 
	C135.804993,168.788345 137.350555,170.647720 135.432175,172.819870 
	C133.650864,174.836838 131.312836,174.812912 129.147079,173.168839 
	C127.822441,172.163284 126.576332,171.052185 125.317345,169.962631 
	C119.767265,165.159485 113.917633,160.755615 107.162918,156.350235 
M87.490463,202.975662 
	C98.987473,211.946793 108.596672,222.694016 117.116386,234.466095 
	C118.273895,236.065460 119.278214,238.256210 121.711479,237.524963 
	C128.655243,235.438187 135.531052,233.125351 142.289719,230.947800 
	C140.497864,216.847504 95.093361,171.772003 82.631950,171.229431 
	C81.010178,176.000809 79.253098,180.823547 77.733543,185.720001 
	C75.290672,193.591629 75.364952,193.601685 81.857269,198.507065 
	C83.580574,199.809128 85.238556,201.197617 87.490463,202.975662 
M232.170868,190.216904 
	C235.713242,191.068893 239.215439,192.320816 242.807144,192.681702 
	C248.581696,193.261887 252.642227,188.496094 251.521301,182.867462 
	C250.725052,178.869141 247.934738,176.800674 244.265289,175.389221 
	C231.745590,170.573425 218.731613,169.471680 205.543259,170.450241 
	C199.005432,170.935333 192.522354,172.367706 186.738480,175.741211 
	C189.914383,184.853409 190.900467,185.833267 199.478699,185.586731 
	C210.395615,185.272934 221.004868,186.719116 232.170868,190.216904 
M143.916702,112.339287 
	C146.175430,103.703293 146.448532,94.901573 145.603470,86.102097 
	C144.984695,79.658951 143.807755,73.241585 141.356400,67.194260 
	C139.541367,62.716705 133.995956,60.027363 129.871185,61.579132 
	C125.689156,63.152439 123.952988,66.398384 124.977150,70.740173 
	C128.812164,86.998222 131.314682,103.352348 129.635788,120.140312 
	C129.208954,124.408302 133.321884,124.923195 135.916901,126.166397 
	C138.497116,127.402489 139.161667,124.603172 139.899643,122.874779 
	C141.268417,119.669121 142.429474,116.374763 143.916702,112.339287 
M98.252724,246.460419 
	C102.487320,244.390915 107.684334,244.543564 111.871796,240.596024 
	C100.277252,225.831451 87.439415,212.750183 72.294907,201.635300 
	C69.692924,205.465271 69.353310,209.387558 67.893265,212.873810 
	C66.483864,216.239136 67.224113,218.779022 70.256355,221.074814 
	C78.768097,227.519272 86.192368,235.103317 92.770798,243.516983 
	C93.981529,245.065521 95.088226,246.877808 98.252724,246.460419 
M70.896393,232.599487 
	C68.573135,230.902588 67.207787,227.791031 63.318790,227.621109 
	C59.833134,235.450668 56.512661,243.411407 54.595440,251.813065 
	C53.509663,256.571136 57.657684,259.978180 62.875809,258.465576 
	C70.795723,256.169769 78.597595,253.398300 86.856499,249.678146 
	C82.213295,243.175110 76.538521,238.371536 70.896393,232.599487 
z"/>
<path fill="#000000" opacity="1.000000" stroke="none" 
	d="
M264.957184,256.961853 
	C262.179901,258.926697 259.677155,258.019714 257.556702,256.828156 
	C251.416428,253.377716 245.638199,253.551529 239.222122,256.567810 
	C232.064331,259.932800 229.152542,257.856293 229.797806,249.898407 
	C230.372147,242.815079 228.749283,237.156097 223.940948,231.771133 
	C219.504028,226.802155 221.013397,222.715302 227.518768,221.324203 
	C234.258560,219.882980 239.151443,217.087067 242.360184,210.494049 
	C245.425735,204.195297 250.955627,204.137482 253.980453,210.281754 
	C257.271881,216.967484 262.298798,219.932236 269.199890,221.427399 
	C276.527008,223.014832 277.650482,226.059036 272.539856,231.628220 
	C267.744843,236.853439 265.797180,242.296738 266.980408,249.197174 
	C267.421417,251.769073 267.367096,254.555283 264.957184,256.961853 
M258.625824,240.688293 
	C257.772308,235.623001 263.042206,233.182236 264.092987,228.141693 
	C256.402954,227.936523 252.173264,222.645859 247.673828,216.209610 
	C244.688751,224.012482 238.935974,226.975998 231.493393,229.098755 
	C238.004120,234.681992 238.814575,241.259186 237.777313,249.489136 
	C245.120651,244.929276 251.600815,245.764862 258.620941,248.972672 
	C258.620941,245.806183 258.620941,243.685242 258.625824,240.688293 
z"/>
<path fill="#000000" opacity="1.000000" stroke="none" 
	d="
M55.561882,63.337029 
	C49.551216,51.230595 50.520077,49.227837 63.528549,49.851067 
	C70.141777,50.167904 73.409149,45.923267 77.493164,42.540699 
	C83.416466,37.634750 86.547340,38.208885 88.112106,45.678658 
	C89.610268,52.830456 93.149536,57.289417 99.881531,60.264469 
	C106.645271,63.253563 107.026222,67.376801 100.887871,70.976357 
	C94.160500,74.921310 91.524574,80.546761 90.377808,87.771408 
	C89.238991,94.945984 85.542030,96.127151 79.604431,91.700493 
	C78.272469,90.707481 76.890350,89.745224 75.719780,88.579559 
	C72.993134,85.864326 69.994919,85.001976 66.217674,86.204376 
	C56.196674,89.394333 49.875893,86.555588 55.532219,73.938332 
	C57.013180,70.634827 58.647800,67.145744 55.561882,63.337029 
M84.146225,58.055710 
	C83.115860,55.558918 83.241524,52.517181 80.319145,50.066364 
	C75.812485,55.787571 70.001678,58.662296 60.780849,57.294628 
	C66.720802,64.741592 65.118652,71.479195 62.840134,79.443977 
	C71.325035,75.688538 77.046532,79.388603 83.581985,84.248764 
	C83.004715,75.221214 87.352173,70.159340 93.589844,66.524887 
	C90.930374,62.723858 86.318054,62.387695 84.146225,58.055710 
z"/>
<path fill="#000000" opacity="1.000000" stroke="none" 
	d="
M214.031067,63.978477 
	C214.848373,59.358059 218.394485,57.940388 221.722992,56.512547 
	C225.339661,54.961090 227.350922,52.798874 228.234238,48.636967 
	C230.738113,36.839493 233.748428,35.897564 242.510956,44.206673 
	C246.115524,47.624744 249.966705,47.906460 254.364105,47.893494 
	C263.011902,47.867985 264.728638,50.153774 261.199585,58.077332 
	C258.633698,63.838402 258.782928,69.065254 261.007111,74.790504 
	C263.466400,81.120872 261.503510,83.945580 254.751892,83.077286 
	C247.680283,82.167847 241.974838,83.490738 236.535110,88.303055 
	C232.455994,91.911720 228.837921,90.727661 228.119797,85.760002 
	C226.944092,77.626854 223.720123,71.316811 216.127487,67.603706 
	C214.903732,67.005249 214.253113,65.749329 214.031067,63.978477 
M240.768250,75.568039 
	C244.281311,73.610573 248.349854,75.641663 252.830566,73.764481 
	C248.770859,68.097610 250.756348,62.327999 253.577942,55.797798 
	C246.242661,57.274097 241.270584,54.659885 235.785278,48.874641 
	C236.071426,57.732616 230.080582,60.183475 224.442352,64.281258 
	C231.798203,67.285126 233.648560,73.138763 235.065735,79.732338 
	C237.217346,78.142654 238.667709,77.071075 240.768250,75.568039 
z"/>
<path fill="#000000" opacity="1.000000" stroke="none" 
	d="
M42.039680,107.776123 
	C47.525276,106.191711 52.620800,104.685051 57.723442,103.202904 
	C66.687798,100.599060 71.400818,103.840721 72.242805,113.223389 
	C72.926086,120.837540 73.768471,128.446091 74.142281,136.076614 
	C74.449509,142.348053 72.099609,145.184647 66.130806,146.984085 
	C51.326931,151.447098 49.735500,150.665237 43.740398,136.307907 
	C41.434845,130.786453 38.955185,125.337944 36.613029,119.831459 
	C33.888088,113.425034 35.040043,110.747444 42.039680,107.776123 
M58.813370,140.846878 
	C61.467766,139.717682 65.923416,140.778381 65.778030,136.091797 
	C65.551620,128.793274 64.919380,121.503456 64.292030,114.224358 
	C64.158562,112.675636 63.750977,110.548119 61.365631,111.041153 
	C55.437107,112.266541 49.372566,113.098320 43.453800,115.909248 
	C46.877705,123.814476 50.120972,131.263870 53.327152,138.729202 
	C54.269203,140.922684 55.766369,141.788574 58.813370,140.846878 
z"/>
<path fill="#000000" opacity="1.000000" stroke="none" 
	d="
M247.049744,143.128113 
	C245.129395,141.559845 244.173050,139.855515 243.841354,137.809586 
	C242.356384,128.650787 240.840744,119.496704 239.414871,110.328682 
	C238.582718,104.978172 241.052704,101.367332 246.425339,101.097313 
	C253.881592,100.722580 261.381927,100.734344 268.840912,101.074135 
	C273.932800,101.306084 276.509918,104.868622 275.711151,110.029716 
	C274.316132,119.043472 272.749481,128.033157 271.087067,137.001846 
	C270.406128,140.675461 268.293732,143.599564 264.454041,144.293823 
	C258.739288,145.327087 252.939011,146.018738 247.049744,143.128113 
M264.163483,129.781860 
	C265.187317,123.908966 266.183624,118.031052 267.253082,112.166473 
	C267.545166,110.564964 267.766846,108.846542 265.641144,108.792786 
	C259.436096,108.635834 253.224487,108.737015 246.941422,108.737015 
	C246.953781,117.123962 249.677094,123.745819 250.078552,130.656265 
	C250.372482,135.715439 252.657700,136.866013 257.361694,136.910889 
	C262.194702,136.956985 264.061798,135.125336 264.163483,129.781860 
z"/>
<path fill="#000000" opacity="1.000000" stroke="none" 
	d="
M207.185333,268.165161 
	C204.874191,270.592987 202.920578,272.895569 200.676071,274.866943 
	C196.473877,278.557739 191.944427,278.251892 188.519394,273.832520 
	C183.625061,267.517273 178.885208,261.071472 174.331070,254.506805 
	C170.549316,249.055496 170.955917,246.005219 175.409546,241.136154 
	C184.960632,230.694214 186.177017,230.556915 197.722382,238.624222 
	C202.499588,241.962280 207.327911,245.230194 212.037949,248.660507 
	C217.310898,252.500809 217.619019,256.921600 213.149216,261.643005 
	C211.205566,263.696045 209.322250,265.806244 207.185333,268.165161 
M181.181137,250.443359 
	C185.514664,256.442139 189.848190,262.440887 194.404800,268.748474 
	C199.104813,264.151947 203.864487,260.840637 207.560944,255.791550 
	C201.885651,251.755951 196.518082,247.868073 191.063614,244.106201 
	C189.532593,243.050278 187.856705,240.535080 185.969635,242.184814 
	C183.704956,244.164627 179.747940,245.450241 181.181137,250.443359 
z"/>
<path fill="#000000" opacity="1.000000" stroke="none" 
	d="
M191.666580,66.643448 
	C188.930862,69.809494 186.387268,72.673431 183.935684,75.614098 
	C182.313293,77.560165 180.311203,78.648766 177.813995,78.249763 
	C172.907013,77.465721 168.706741,75.102409 165.272079,71.605095 
	C163.552017,69.853668 163.299255,67.396896 164.168747,65.027756 
	C166.576523,58.467091 168.916565,51.877365 171.518478,45.393467 
	C173.650269,40.081093 177.618195,38.684620 182.774445,41.378929 
	C186.754242,43.458492 190.637878,45.750290 194.420654,48.172058 
	C200.103943,51.810551 200.637253,56.338078 196.187714,61.499443 
	C194.774506,63.138725 193.328690,64.749901 191.666580,66.643448 
M178.466095,50.149975 
	C176.604034,54.932457 174.738663,59.713661 172.881256,64.497955 
	C171.927002,66.955887 173.527893,68.125427 175.245758,69.314598 
	C177.225784,70.685234 178.594849,69.916069 179.898376,68.284248 
	C182.693085,64.785774 185.538483,61.327785 188.362839,57.852989 
	C189.501022,56.452663 190.451248,54.781837 188.336044,53.710827 
	C185.321716,52.184551 182.844772,49.294586 178.466095,50.149975 
z"/>
</svg>