<svg version="1.1" id="Layer_1" xmlns="http://www.w3.org/2000/svg" xmlns:xlink="http://www.w3.org/1999/xlink" x="0px" y="0px"
	 width="100%" viewBox="0 0 288 240" enable-background="new 0 0 288 240" xml:space="preserve">
<path fill="#000000" opacity="1.000000" stroke="none" 
	d="
M159.331116,189.270966 
	C167.592422,184.860916 175.537308,180.650772 183.481094,176.438583 
	C184.363342,175.970795 185.189423,175.306763 186.127930,175.052414 
	C188.860809,174.311768 191.671173,174.293808 193.130646,177.158463 
	C194.695282,180.229568 192.812698,182.179214 190.166641,183.526764 
	C179.782608,188.815018 169.355759,194.020874 159.023026,199.407394 
	C154.290970,201.874237 149.323593,201.890915 144.416595,200.920029 
	C138.063385,199.663010 131.832886,197.788849 125.544388,196.200851 
	C120.280746,194.871674 115.009682,193.571899 109.997131,192.322723 
	C108.084587,194.454254 109.297981,196.303207 109.340813,198.027588 
	C109.526772,205.513901 106.227394,210.745895 99.346687,213.702026 
	C95.065697,215.541229 90.919777,217.722809 86.565567,219.357330 
	C79.067520,222.172043 71.968582,219.485107 68.513191,212.270645 
	C61.897442,198.457748 55.528599,184.525238 49.195004,170.579819 
	C48.081974,168.129150 46.335400,164.933090 50.105766,163.236893 
	C53.780861,161.583557 55.649662,164.411850 56.960682,167.234268 
	C62.500454,179.160583 68.044334,191.087189 73.378738,203.105988 
	C77.164383,211.635330 80.398613,212.973404 88.945564,208.914246 
	C91.802437,207.557434 94.687149,206.251343 97.486908,204.784210 
	C100.699966,203.100494 101.512283,200.311478 100.034714,197.177399 
	C90.806572,177.603607 81.476639,158.077805 72.178619,138.536957 
	C70.244064,134.471268 67.318153,133.365067 63.193626,135.386551 
	C59.908401,136.996689 56.604580,138.599915 53.201263,139.930618 
	C48.385284,141.813660 46.991814,145.058487 48.642017,149.835632 
	C48.964466,150.769089 49.246223,151.753586 49.313980,152.730667 
	C49.473751,155.034561 48.360851,156.591690 46.121128,157.138916 
	C44.140934,157.622711 42.606739,156.939484 41.455044,155.146988 
	C36.887745,148.038406 38.894619,137.786667 46.181686,133.609665 
	C51.216045,130.723953 56.624699,128.457901 61.972168,126.162010 
	C66.459106,124.235573 70.905991,124.849319 74.667999,127.937378 
	C76.993675,129.846436 78.963371,129.630493 81.519768,128.580673 
	C88.744301,125.613853 95.770676,122.163521 103.348274,120.042412 
	C112.021530,117.614609 120.555725,118.566437 128.021698,122.856339 
	C135.954895,127.414703 144.594894,128.564331 153.091217,130.636398 
	C160.342178,132.404724 167.873047,133.337936 173.321335,139.313843 
	C175.768707,141.998230 178.350861,139.979568 180.666855,139.065582 
	C193.521225,133.992737 206.378433,128.917236 219.111221,123.549759 
	C226.934418,120.251892 233.735031,121.532127 239.915894,127.011192 
	C246.374786,132.736710 247.639984,139.895172 245.410080,147.937561 
	C243.929138,153.278732 240.244446,156.873383 235.603653,159.360992 
	C225.777863,164.627899 215.805664,169.622070 205.883560,174.708664 
	C203.632294,175.862778 201.167572,177.340393 199.442459,174.135315 
	C197.677185,170.855667 199.540787,168.758926 202.329468,167.297226 
	C211.473221,162.504456 220.650589,157.775864 229.799698,152.993286 
	C236.057678,149.722000 237.742889,146.552124 236.974670,139.690445 
	C236.162521,132.436386 230.175858,128.341934 223.329636,131.026367 
	C209.080872,136.613373 195.004715,142.639786 180.836533,148.434036 
	C178.349777,149.451019 177.661362,151.293396 177.132812,153.790970 
	C174.834946,164.649078 165.877304,170.664108 154.904190,168.997650 
	C144.225723,167.375961 133.549988,165.736191 122.874199,164.096954 
	C119.849411,163.632507 117.043968,162.761475 117.920174,158.824753 
	C118.685501,155.386154 120.923256,154.724655 124.366951,155.389084 
	C134.310913,157.307755 144.332184,158.823578 154.316666,160.535049 
	C162.371826,161.915802 168.996964,157.181229 168.648941,150.208405 
	C168.442047,146.063461 166.423828,143.367538 162.273758,142.377762 
	C153.707169,140.334641 145.141113,138.287994 136.592850,136.170090 
	C133.033218,135.288162 129.753876,133.819626 126.528557,131.949219 
	C117.878654,126.932999 108.783348,125.565704 99.323311,129.900925 
	C94.783501,131.981354 90.234055,134.054337 85.603188,135.917480 
	C82.761490,137.060806 82.251732,138.663742 83.523605,141.331268 
	C89.899353,154.703247 96.223083,168.100143 102.526154,181.506592 
	C103.669456,183.938354 105.160881,185.221603 108.016914,184.208069 
	C110.658012,183.270813 113.262848,184.017776 115.866432,184.694351 
	C125.197464,187.119080 134.590851,189.317657 143.867966,191.930847 
	C149.434479,193.498856 154.372269,192.798401 159.331116,189.270966 
z"/>
<path fill="#000000" opacity="1.000000" stroke="none" 
	d="
M140.056854,61.050545 
	C133.142838,76.911446 142.629623,94.742393 153.525269,100.208199 
	C167.776169,107.357170 185.321976,103.826546 194.125900,91.055840 
	C199.911362,82.663620 201.282623,73.332626 197.868256,63.478283 
	C195.561905,56.821892 192.299606,50.676861 188.541656,44.748631 
	C187.016296,42.342350 185.285355,39.559406 188.611465,37.333195 
	C191.777863,35.213894 194.035843,37.327465 195.643738,39.837608 
	C202.681778,50.824959 209.060593,61.885201 208.477585,75.818390 
	C207.713135,94.088203 190.937469,111.567123 172.525665,112.304008 
	C148.868011,113.250862 132.138885,99.499306 129.186188,76.026581 
	C127.740562,64.534599 132.804428,54.488495 138.590942,45.075840 
	C145.659241,33.578167 153.783768,22.798763 162.984543,12.875743 
	C166.763519,8.800111 169.780029,8.576456 173.526215,12.501844 
	C177.314133,16.470974 180.908615,20.633371 184.437698,24.837156 
	C186.145111,26.870995 187.154800,29.469025 184.714249,31.506502 
	C182.120026,33.672276 179.725296,32.181358 177.761414,30.058348 
	C175.500595,27.614365 173.322617,25.093470 171.050125,22.660654 
	C169.552689,21.057573 167.895996,20.804289 166.347183,22.597872 
	C156.220825,34.324600 146.025864,46.007557 140.056854,61.050545 
z"/>
<path fill="#000000" opacity="1.000000" stroke="none" 
	d="
M158.606995,61.990704 
	C162.496841,63.318066 163.387375,67.404945 166.667038,69.218414 
	C170.479950,67.093941 173.072174,63.579758 176.200363,60.685802 
	C177.538605,59.447762 178.828323,58.153374 180.214600,56.972034 
	C182.277069,55.214470 184.250488,55.833546 185.972641,57.505150 
	C187.787781,59.266998 187.312851,61.277412 185.813141,62.826469 
	C180.620316,68.190140 175.369873,73.504364 169.971771,78.659851 
	C167.788055,80.745422 165.152512,80.899612 162.898376,78.513268 
	C160.165436,75.620010 157.337830,72.783531 154.903656,69.648788 
	C151.735611,65.568970 152.972916,62.945473 158.606995,61.990704 
z"/>
</svg>