<?xml version="1.0" standalone="no"?>
<!DOCTYPE svg PUBLIC "-//W3C//DTD SVG 20010904//EN"
 "http://www.w3.org/TR/2001/REC-SVG-20010904/DTD/svg10.dtd">
<svg version="1.0" xmlns="http://www.w3.org/2000/svg"
 width="93.000000pt" height="100.000000pt" viewBox="0 0 93.000000 100.000000"
 preserveAspectRatio="xMidYMid meet">
<metadata>
Created by potrace 1.10, written by Peter Selinger 2001-2011
</metadata>
<g transform="translate(0.000000,100.000000) scale(0.100000,-0.100000)"
fill="#000000" stroke="none">
<path d="M315 837 c-114 -38 -173 -102 -190 -206 -4 -26 -16 -52 -27 -61 -13
-10 -20 -27 -19 -43 2 -26 2 -38 0 -97 -1 -13 8 -31 19 -40 10 -9 25 -33 32
-54 16 -48 65 -105 107 -122 45 -19 381 -19 426 0 42 17 91 74 107 122 7 21
22 45 32 54 11 9 20 27 19 40 -2 59 -2 71 0 97 1 16 -6 33 -19 43 -11 9 -23
35 -27 61 -15 90 -63 151 -150 191 -40 18 -71 23 -160 25 -71 2 -124 -2 -150
-10z m296 -59 c63 -29 101 -72 118 -133 6 -22 11 -43 11 -47 0 -5 -130 -8
-290 -8 -159 0 -290 3 -290 8 0 4 5 25 11 47 31 112 131 167 294 162 72 -2
102 -8 146 -29z m164 -253 c0 -20 -8 -20 -319 -23 -192 -1 -324 2 -329 7 -5 5
-7 17 -4 25 6 15 43 16 329 14 315 -3 323 -3 323 -23z m0 -90 c0 -17 -8 -21
-52 -25 -28 -3 -60 -13 -70 -23 -25 -22 -36 -21 -58 3 -12 13 -31 20 -55 20
-24 0 -43 -7 -55 -20 -10 -11 -26 -20 -35 -20 -9 0 -25 9 -35 20 -12 13 -31
20 -55 20 -24 0 -43 -7 -55 -20 -10 -11 -23 -20 -30 -20 -7 0 -22 9 -35 20
-15 13 -37 20 -66 20 -45 0 -60 11 -50 36 5 12 52 14 328 12 315 -3 323 -3
323 -23z m-558 -85 c14 -11 40 -20 58 -20 19 0 39 8 50 20 10 11 25 20 32 20
8 0 26 -9 40 -20 14 -11 38 -20 53 -20 15 0 39 9 53 20 14 11 32 20 40 20 7 0
22 -9 32 -20 11 -12 31 -20 50 -20 19 0 39 8 50 20 10 11 29 20 41 20 21 0 23
-2 13 -27 -14 -38 -48 -73 -86 -89 -45 -19 -341 -19 -386 0 -38 16 -72 51 -86
89 -9 22 -8 27 5 27 9 0 27 -9 41 -20z"/>
<path d="M392 757 c-15 -17 1 -42 23 -33 18 6 17 37 -1 43 -6 2 -16 -2 -22
-10z"/>
<path d="M475 710 c-4 -7 -3 -16 3 -22 14 -14 45 -2 40 15 -6 16 -34 21 -43 7z"/>
<path d="M297 666 c-7 -18 1 -26 25 -26 13 0 18 6 16 17 -4 22 -34 29 -41 9z"/>
<path d="M567 673 c-14 -13 -7 -33 11 -33 24 0 32 8 25 26 -5 15 -25 19 -36 7z"/>
</g>
</svg>
