<svg version="1.1" id="Layer_1" xmlns="http://www.w3.org/2000/svg" xmlns:xlink="http://www.w3.org/1999/xlink" x="0px" y="0px"
	 width="100%" viewBox="0 0 320 288" enable-background="new 0 0 320 288" xml:space="preserve">
<path fill="#000000" opacity="1.000000" stroke="none" 
	d="
M177.162048,256.179840 
	C163.098083,253.950623 149.373032,252.366776 136.089035,248.393616 
	C130.163132,246.621185 124.399269,244.481812 119.006416,241.475204 
	C111.600822,237.346420 105.312775,232.079468 102.889832,223.166412 
	C99.416817,224.895340 97.639389,227.366257 95.496368,229.377960 
	C89.148720,235.336639 82.605133,241.005112 74.026443,243.550980 
	C61.737408,247.197952 49.008484,237.684555 49.683872,225.407257 
	C49.968330,220.236420 52.566959,216.321609 56.357861,213.028946 
	C57.592537,211.956573 59.290253,211.395081 60.158020,209.534393 
	C59.159306,207.076019 56.563240,206.348404 54.523293,205.187592 
	C41.016479,197.501755 39.404419,183.042343 49.358437,174.092850 
	C51.281868,172.363525 50.682594,170.080368 50.685524,167.987076 
	C50.721233,142.491821 50.765144,116.996216 50.643299,91.501495 
	C50.624790,87.627892 51.574654,84.442528 53.926769,81.358086 
	C60.087372,73.279396 65.936958,64.963524 72.098763,56.885780 
	C74.042511,54.337646 74.856247,51.760025 74.753716,48.604671 
	C74.586037,43.444550 74.698586,38.274696 74.724663,33.109108 
	C74.745972,28.885986 76.651772,26.670450 81.124672,26.681725 
	C104.120277,26.739683 127.116211,26.736881 150.111786,26.671261 
	C154.099960,26.659880 155.993164,28.508713 156.074173,32.350937 
	C156.147919,35.848736 156.425873,39.383915 156.048447,42.840889 
	C155.255478,50.104107 157.514053,56.009823 162.243057,61.554264 
	C167.419861,67.623711 171.756271,74.401985 176.726303,80.658981 
	C179.383789,84.004608 180.472580,87.521614 180.288773,91.730461 
	C180.078140,96.553284 180.233429,101.393250 180.276749,106.225349 
	C180.291458,107.866318 180.049515,110.117752 182.119843,110.383476 
	C191.202026,111.549156 199.169632,115.459183 207.427719,120.894043 
	C207.550964,112.788895 204.706696,106.417267 202.697830,99.861595 
	C200.128967,91.478539 196.223526,83.267136 198.757751,74.133987 
	C199.688858,70.778343 200.883453,67.483856 202.156677,64.239479 
	C202.941254,62.240215 204.295135,60.766842 206.797226,61.895817 
	C209.014877,62.896442 211.091721,64.002090 210.320023,67.051109 
	C210.238327,67.373878 210.232986,67.729279 210.092957,68.022057 
	C205.435028,77.760208 207.973419,87.129181 211.345093,96.550713 
	C213.410370,102.321754 215.037766,108.249504 216.836304,114.024971 
	C218.580719,115.069000 219.790085,113.777306 221.112808,113.268486 
	C240.267944,105.899857 255.566116,110.769653 265.974548,128.465073 
	C280.191742,152.635803 280.224213,185.023224 261.897858,208.304245 
	C258.066742,213.171112 253.391678,217.144608 247.872559,221.018677 
	C251.045685,225.288269 255.477417,227.449417 258.906464,230.664307 
	C261.488800,233.085373 263.854919,235.612732 265.613739,238.654129 
	C269.834717,245.953171 268.096436,251.865021 260.304077,255.274963 
	C254.342194,257.883881 247.975922,259.114929 241.396622,259.310669 
	C220.049149,259.945679 198.813126,258.471069 177.162048,256.179840 
M205.448029,131.969376 
	C202.647675,128.014313 198.328888,126.034882 194.363480,123.676544 
	C179.337219,114.739990 164.370117,119.246918 156.040924,134.722565 
	C149.844986,146.234634 147.722382,158.445175 148.272018,171.341888 
	C148.416885,174.740982 149.765976,176.205444 153.086655,177.103699 
	C179.954117,184.371460 204.834305,196.290512 228.842865,210.129456 
	C240.222717,216.688980 241.520920,216.646362 250.714310,207.156433 
	C251.293350,206.558701 251.834290,205.923004 252.376724,205.291061 
	C268.730469,186.238983 271.646973,159.150482 259.829987,136.088104 
	C251.173920,119.194687 237.278595,115.008102 220.783752,124.176750 
	C217.481644,126.012222 215.544708,128.212692 216.669556,132.511322 
	C219.001053,132.688599 221.170990,133.771210 223.125488,135.371567 
	C225.115234,137.000809 225.056458,138.404663 223.356125,140.355820 
	C215.210022,149.703659 199.976318,149.803741 191.878830,140.510223 
	C190.075012,138.439987 189.989700,136.867203 192.348404,135.157486 
	C195.003708,133.232788 197.409714,131.859070 200.018387,135.238480 
	C200.896255,136.375687 202.088867,137.446152 203.881088,137.175705 
	C205.220108,135.969681 205.275635,134.272308 205.448029,131.969376 
M237.705917,236.000015 
	C236.593887,240.529083 233.480682,238.652832 230.964615,237.941147 
	C228.132523,237.140076 228.355301,234.862473 229.045639,232.637146 
	C229.686096,230.572617 230.352890,228.509674 231.147125,226.501007 
	C232.273209,223.653015 231.440109,221.896530 228.716141,220.435883 
	C213.457367,212.253799 198.366364,203.732315 182.441055,196.885559 
	C177.827347,194.902008 173.309509,192.337662 167.857071,191.611603 
	C164.826035,201.427017 161.932434,210.783234 159.049362,220.142715 
	C158.249680,222.738815 157.793976,225.342285 153.771805,224.112854 
	C149.839645,222.910950 149.551849,220.779221 150.601547,217.337463 
	C152.977661,209.546509 155.152176,201.691864 157.275146,193.827087 
	C158.037048,191.004562 159.280487,187.811569 154.826431,186.620438 
	C147.431931,184.642944 140.095764,182.639786 132.265274,183.114151 
	C127.157394,183.423584 123.340546,185.500839 120.495178,189.549301 
	C115.373650,196.836334 113.287292,205.172729 112.290787,213.865433 
	C111.223114,223.178894 115.209412,229.660416 123.548149,233.521103 
	C127.614532,235.403763 131.771484,237.144272 136.009109,238.593323 
	C147.716522,242.596649 159.994507,243.825470 172.120499,245.830887 
	C182.858261,247.606720 182.827179,247.793396 186.182114,237.697861 
	C186.392151,237.065842 186.597061,236.431763 186.824448,235.805939 
	C187.571777,233.749146 188.826706,233.111526 191.092697,233.665375 
	C195.910110,234.842804 195.972382,237.686279 194.395676,241.504410 
	C192.865662,245.209442 192.541382,248.465042 198.088058,248.575455 
	C209.897995,248.810516 221.594055,251.376114 233.438004,250.551865 
	C240.720673,250.045044 248.024796,249.378876 255.125961,247.473633 
	C257.794159,246.757751 259.577667,245.351639 257.485870,242.524368 
	C252.986710,236.443253 246.887833,232.369156 240.503860,228.701248 
	C238.617218,230.989349 238.465866,233.194473 237.705917,236.000015 
M60.439224,230.792694 
	C66.369667,236.348846 69.456154,236.771378 76.389824,232.585999 
	C86.211136,226.657501 94.539467,219.001862 101.190422,209.687653 
	C104.838020,204.579437 106.852905,198.328903 106.432838,192.271561 
	C105.661980,181.155518 103.208221,170.228287 98.444176,159.990509 
	C97.235916,157.393997 95.652672,155.049759 93.392143,153.249283 
	C90.313034,150.796799 83.849556,150.403748 81.158195,152.489075 
	C77.302605,155.476440 78.312683,159.116318 79.715202,162.888214 
	C81.073616,166.541519 83.260162,169.660828 85.622208,172.684052 
	C87.336227,174.877838 88.848320,177.200058 87.036804,179.920731 
	C85.083817,182.853882 82.226364,182.276489 79.398491,181.359482 
	C74.121643,179.648331 68.707977,179.007080 63.161274,179.127487 
	C58.470592,179.229340 54.660408,180.334976 53.117428,185.481552 
	C51.525002,190.793030 54.220592,194.035477 58.124802,196.800995 
	C62.675907,200.024765 67.885651,201.797821 73.149605,203.387131 
	C75.929298,204.226395 78.953644,204.889725 79.152206,208.406189 
	C79.375076,212.353088 76.023369,213.041275 73.176529,213.972748 
	C69.667747,215.120789 66.418640,216.713745 63.419155,218.907501 
	C59.392746,221.852325 57.938725,225.447235 60.439224,230.792694 
M60.269794,143.500824 
	C60.267590,150.824417 60.241207,158.148163 60.283924,165.471497 
	C60.292290,166.905716 59.893131,169.120590 61.657475,169.326935 
	C64.813309,169.696045 67.979988,171.501129 71.139351,170.042969 
	C72.119896,168.020462 70.778984,166.613647 70.439873,165.045135 
	C69.810211,162.132721 68.834976,159.290771 69.321022,156.216293 
	C70.521408,148.623215 74.811424,144.066284 82.308197,142.235031 
	C90.274323,140.289108 96.874428,142.594864 101.947151,148.671539 
	C107.725708,155.593765 110.304947,164.076599 112.304604,172.718872 
	C112.920609,175.381149 113.052635,178.231247 115.163727,180.289902 
	C122.899254,176.189301 122.893394,176.189301 122.892090,168.005646 
	C122.890045,155.189301 122.793045,142.371597 122.961250,129.557419 
	C123.013756,125.557716 121.762024,123.890373 117.554512,123.918625 
	C99.746155,124.038223 81.935753,123.970177 64.127228,123.828575 
	C61.302563,123.806114 60.204796,124.717262 60.262215,127.522072 
	C60.364399,132.513123 60.276756,137.508087 60.269794,143.500824 
M166.291718,112.626778 
	C169.574860,111.969337 171.018173,110.106735 170.754364,106.640594 
	C170.502640,103.333092 170.438416,99.967453 170.754730,96.671806 
	C171.140594,92.651489 169.401688,91.375526 165.656372,91.412529 
	C156.177338,91.506203 146.692993,91.568344 137.218170,91.338287 
	C133.257141,91.242096 132.043594,92.682144 132.064148,96.550339 
	C132.191406,120.499611 132.107880,144.449921 132.140686,168.399826 
	C132.148514,174.120255 133.379700,174.846207 139.161545,172.702835 
	C138.190765,162.371140 139.435562,152.176666 142.777466,142.379120 
	C146.988907,130.032425 153.050766,118.887344 166.291718,112.626778 
M76.506042,114.621086 
	C90.140182,114.625977 103.774963,114.559395 117.408020,114.683578 
	C121.036156,114.716614 123.115509,113.809990 122.941284,109.695175 
	C122.744522,105.047798 122.822548,100.385132 122.899239,95.731071 
	C122.952835,92.478020 121.341400,91.380554 118.272629,91.389694 
	C100.481895,91.442688 82.690758,91.449623 64.900162,91.375648 
	C61.838139,91.362915 60.204636,92.306030 60.276348,95.626755 
	C60.384007,100.612152 60.353741,105.602501 60.277561,110.589157 
	C60.231834,113.582520 61.601166,114.757034 64.536850,114.656174 
	C68.190468,114.530632 71.851570,114.623344 76.506042,114.621086 
M85.150871,59.337776 
	C83.586815,59.307186 82.133911,59.650059 81.145012,60.948376 
	C75.894272,67.842110 70.673233,74.758476 65.136864,82.069847 
	C85.050163,82.069847 103.970306,82.084930 122.890251,82.031456 
	C123.996719,82.028328 125.574326,81.837021 126.133621,81.114632 
	C131.350479,74.376579 136.392365,67.503075 141.484924,60.668800 
	C141.213394,60.221062 140.941864,59.773323 140.670319,59.325584 
	C122.455788,59.325584 104.241257,59.325584 85.150871,59.337776 
M100.503357,35.350784 
	C98.336761,35.349628 96.169838,35.322979 94.003632,35.351627 
	C83.259666,35.493725 84.528687,33.725090 84.225311,45.350689 
	C84.116966,49.502277 85.520119,50.814232 89.653229,50.763641 
	C105.483749,50.569885 121.318390,50.748096 137.150879,50.667084 
	C147.779846,50.612701 146.784958,52.348251 146.976807,40.717705 
	C147.044479,36.614265 145.659805,35.200390 141.499954,35.267380 
	C128.170410,35.482037 114.835289,35.349422 100.503357,35.350784 
M139.870911,78.092026 
	C139.244125,79.186340 137.967148,80.006584 138.409882,81.660873 
	C147.156067,81.660873 155.888550,81.660873 165.768463,81.660873 
	C160.751053,74.920547 156.460617,69.156815 151.939148,63.082714 
	C146.796631,67.636635 143.989395,72.968475 139.870911,78.092026 
z"/>
<path fill="#000000" opacity="1.000000" stroke="none" 
	d="
M211.307343,85.564423 
	C218.967453,73.433571 232.769867,71.020950 243.283630,79.648201 
	C248.807770,84.181122 248.920486,89.287277 243.599304,93.948410 
	C234.862045,101.601868 222.390656,101.182991 214.316803,92.891212 
	C212.462189,90.986549 210.629669,88.954819 211.307343,85.564423 
M234.301682,89.228172 
	C236.200104,87.928169 236.854858,86.600822 234.519653,85.041237 
	C230.694443,82.486534 225.849045,83.312172 222.572556,87.285576 
	C225.731064,90.812828 229.403641,91.549973 234.301682,89.228172 
z"/>
</svg>