<?xml version="1.0" standalone="no"?>
<!DOCTYPE svg PUBLIC "-//W3C//DTD SVG 20010904//EN"
 "http://www.w3.org/TR/2001/REC-SVG-20010904/DTD/svg10.dtd">
<svg version="1.0" xmlns="http://www.w3.org/2000/svg"
 width="111.000000pt" height="126.000000pt" viewBox="0 0 111.000000 126.000000"
 preserveAspectRatio="xMidYMid meet">
<metadata>
Created by potrace 1.10, written by Peter Selinger 2001-2011
</metadata>
<g transform="translate(0.000000,126.000000) scale(0.100000,-0.100000)"
fill="#000000" stroke="none">
<path d="M345 1064 c-23 -9 -58 -14 -83 -11 l-43 5 3 -112 3 -111 35 -3 c19
-2 60 4 90 13 77 23 105 18 105 -18 0 -24 -6 -31 -39 -42 -41 -14 -92 -58
-101 -86 -3 -10 -21 -23 -40 -29 -40 -13 -106 -71 -88 -77 7 -3 28 8 48 23 37
28 104 41 149 30 13 -3 38 -17 54 -31 22 -18 28 -31 24 -50 -5 -30 -18 -32
-27 -4 -9 27 -63 59 -101 59 -43 0 -97 -38 -109 -78 -11 -38 -48 -47 -43 -9 2
12 -1 24 -7 27 -5 3 -11 -7 -13 -22 -3 -25 -7 -28 -43 -28 -33 0 -39 -3 -39
-20 0 -59 62 -120 121 -120 29 0 39 -4 39 -16 0 -8 13 -29 29 -45 l29 -29 242
0 242 0 29 29 c16 16 29 37 29 45 0 11 9 16 29 16 15 0 40 9 55 21 51 40 75
119 37 119 -14 0 -21 10 -26 33 -10 42 -39 100 -60 117 -10 8 -21 24 -26 37
-4 12 -23 30 -41 39 -38 20 -143 30 -177 17 -19 -8 -34 -4 -68 15 l-43 24 0
94 c0 56 -4 94 -10 94 -6 0 -10 -38 -10 -95 0 -57 -4 -95 -10 -95 -6 0 -10 52
-10 135 0 83 4 135 10 135 6 0 10 -11 10 -25 0 -14 5 -25 11 -25 6 0 9 14 7
33 l-3 32 -65 2 c-38 1 -82 -4 -105 -13z m109 -96 c0 -46 -4 -82 -7 -80 -4 1
-16 2 -27 2 -18 0 -20 7 -20 80 l0 80 28 0 27 0 -1 -82z m-74 -7 c0 -79 0 -79
-30 -90 l-30 -10 0 84 c0 85 3 92 43 94 15 1 17 -9 17 -78z m-80 -26 c0 -74
-2 -85 -17 -85 -32 0 -38 14 -38 93 l0 77 28 0 27 0 0 -85z m236 -184 c23 -10
44 -23 48 -29 11 -18 -24 -22 -54 -7 -44 23 -94 19 -128 -10 -17 -14 -40 -25
-53 -25 -22 0 -21 2 11 35 53 55 109 66 176 36z m254 -39 c30 -15 35 -22 35
-52 0 -28 -4 -36 -21 -38 -15 -2 -23 3 -27 17 -8 32 -25 25 -29 -11 -2 -28 -7
-33 -28 -33 -24 0 -25 3 -25 54 0 35 -5 56 -12 58 -7 3 -13 -3 -13 -11 0 -22
-27 -31 -45 -16 -11 9 -12 17 -4 31 13 26 119 27 169 1z m-281 -13 c25 -9 29
-14 20 -25 -6 -8 -21 -11 -39 -8 -15 3 -36 2 -46 -4 -21 -10 -44 -6 -44 9 0 9
48 38 66 39 6 0 25 -5 43 -11z m91 -30 c0 -6 -16 -26 -35 -46 -19 -20 -40 -53
-45 -75 -6 -22 -17 -38 -25 -38 -20 0 -18 27 5 78 31 68 100 124 100 81z m70
-32 c0 -8 -17 -25 -37 -38 -24 -15 -42 -36 -48 -56 -6 -22 -15 -33 -27 -33
-44 0 3 93 62 122 42 21 50 22 50 5z m219 -40 c27 -56 28 -87 1 -87 -13 0 -20
7 -20 20 0 12 -7 34 -15 50 -14 28 -12 60 5 60 5 0 18 -19 29 -43z m-60 -21
c5 -6 12 -23 16 -39 6 -23 4 -27 -14 -27 -13 0 -21 6 -21 16 0 9 -9 28 -20 44
l-19 27 24 -5 c13 -2 29 -9 34 -16z m-428 -15 c16 -16 29 -34 29 -40 0 -19
-28 -12 -54 14 -14 14 -32 25 -41 25 -9 0 -27 -11 -41 -25 -26 -26 -54 -33
-54 -14 0 6 13 24 29 40 22 21 39 29 66 29 27 0 44 -8 66 -29z m286 13 c11
-10 26 -14 44 -10 22 4 32 0 44 -17 8 -12 15 -25 15 -29 0 -16 -32 -7 -49 13
-10 13 -29 22 -46 22 -17 0 -36 -9 -46 -22 -18 -22 -49 -29 -49 -10 0 11 54
69 65 69 4 0 14 -7 22 -16z m-322 -54 c4 -6 -8 -10 -30 -10 -22 0 -34 4 -30
10 3 6 17 10 30 10 13 0 27 -4 30 -10z m360 0 c4 -6 -8 -10 -30 -10 -22 0 -34
4 -30 10 3 6 17 10 30 10 13 0 27 -4 30 -10z m225 -45 c0 -8 -13 -29 -29 -47
l-29 -33 -362 0 -362 0 -29 33 c-58 65 -74 62 391 62 365 0 420 -2 420 -15z
m-140 -119 c0 -8 -12 -24 -26 -35 -25 -20 -39 -21 -244 -21 -205 0 -219 1
-244 21 -14 11 -26 27 -26 35 0 12 43 14 270 14 227 0 270 -2 270 -14z"/>
</g>
</svg>
