<?xml version="1.0" standalone="no"?>
<!DOCTYPE svg PUBLIC "-//W3C//DTD SVG 20010904//EN"
 "http://www.w3.org/TR/2001/REC-SVG-20010904/DTD/svg10.dtd">
<svg version="1.0" xmlns="http://www.w3.org/2000/svg"
 width="118.000000pt" height="103.000000pt" viewBox="0 0 118.000000 103.000000"
 preserveAspectRatio="xMidYMid meet">
<metadata>
Created by potrace 1.10, written by Peter Selinger 2001-2011
</metadata>
<g transform="translate(0.000000,103.000000) scale(0.100000,-0.100000)"
fill="#000000" stroke="none">
<path d="M291 811 c-6 -11 -11 -31 -11 -44 0 -14 -7 -28 -16 -31 -11 -4 -14
-13 -11 -28 8 -29 -9 -58 -34 -58 -29 0 -59 -18 -59 -35 0 -8 -6 -15 -14 -15
-24 0 -26 -13 -11 -76 19 -78 19 -74 -15 -74 -27 0 -30 -3 -30 -31 0 -36 47
-89 79 -89 14 0 21 -6 21 -19 0 -34 24 -42 111 -39 55 2 84 7 87 16 3 9 -19
12 -87 12 -74 0 -91 3 -91 15 0 13 43 15 330 15 287 0 330 -2 330 -15 0 -13
-31 -15 -220 -15 -189 0 -220 -2 -220 -15 0 -13 31 -15 218 -15 226 0 242 3
242 42 0 12 7 18 21 18 32 0 79 53 79 89 0 29 -2 31 -40 31 l-41 0 21 28 c28
38 38 123 16 141 -9 7 -16 19 -16 27 0 18 -40 54 -60 54 -9 0 -22 6 -29 13 -9
9 -59 12 -179 12 -142 0 -167 2 -167 15 0 12 16 16 73 18 55 2 72 6 72 17 0
22 -133 21 -154 -1 -29 -28 -18 -67 24 -82 l24 -9 -23 -12 c-34 -19 -51 -7
-51 36 0 42 -13 69 -28 59 -5 -3 -12 4 -15 15 -4 15 -11 19 -25 15 -12 -4 -34
2 -55 14 -36 21 -36 21 -46 1z m54 -43 c13 -20 18 -21 35 -10 18 11 20 10 20
-9 0 -16 4 -19 21 -14 20 7 22 5 16 -29 -3 -20 -12 -45 -21 -57 -14 -21 -15
-20 -36 30 -13 28 -26 51 -30 51 -18 0 -18 -16 1 -51 l19 -39 -32 7 c-37 6
-71 22 -50 23 14 0 17 30 2 30 -5 0 -10 5 -10 10 0 6 9 10 19 10 17 0 19 5 14
35 -7 41 8 46 32 13z m395 -108 c0 -36 -2 -40 -25 -40 -22 0 -25 4 -25 33 0
38 6 47 32 47 14 0 18 -8 18 -40z m88 -2 c3 -37 3 -38 -32 -38 -35 0 -36 1
-32 33 3 17 5 36 5 40 1 5 13 7 29 5 23 -3 27 -8 30 -40z m-238 23 c0 -17 33
-21 50 -6 25 22 30 19 30 -20 0 -32 -3 -35 -28 -35 -31 0 -67 22 -82 51 -9 16
-7 19 10 19 11 0 20 -4 20 -9z m304 -24 c12 -19 1 -43 -27 -61 -20 -13 -35 0
-19 16 7 7 12 25 12 41 0 31 16 33 34 4z m-330 -32 c13 -13 37 -27 53 -31 15
-4 38 -16 50 -27 25 -23 43 -16 23 8 -9 11 -10 15 0 15 6 0 20 -10 29 -22 11
-12 23 -18 30 -14 9 6 9 11 0 22 -18 22 2 16 28 -8 26 -24 44 -18 22 8 -12 14
-11 16 6 13 24 -5 31 -34 15 -54 -9 -11 -35 -15 -91 -15 -72 0 -79 -2 -79 -19
0 -11 5 -23 10 -26 21 -13 9 -25 -25 -25 -19 0 -35 -4 -35 -10 0 -6 67 -10
180 -10 171 0 180 -1 180 -19 0 -11 -12 -29 -26 -40 -26 -20 -38 -21 -394 -21
-356 0 -368 1 -394 21 -14 11 -26 29 -26 40 0 18 9 19 225 19 143 0 225 4 225
10 0 6 -55 10 -145 10 -98 0 -145 4 -145 11 0 6 9 13 21 16 15 4 19 11 15 25
-7 30 4 48 29 48 18 0 24 6 27 28 3 23 7 27 30 24 20 -2 28 3 33 19 6 18 12
20 41 14 21 -3 34 -2 34 5 0 18 28 11 54 -15z m-241 -3 c39 -6 34 -22 -8 -22
-19 0 -35 -4 -35 -10 0 -5 11 -10 25 -10 l24 0 -24 -24 c-15 -15 -22 -31 -19
-40 3 -9 1 -16 -5 -16 -6 0 -17 -11 -23 -25 -10 -22 -17 -25 -47 -23 -33 3
-35 5 -47 58 -7 30 -13 58 -14 63 0 4 23 7 50 7 28 0 50 5 50 10 0 6 -16 10
-36 10 -21 0 -33 4 -29 10 3 6 19 10 35 10 16 0 32 5 35 11 4 6 14 7 24 3 9
-4 28 -9 44 -12z m607 -42 c0 -34 -17 -45 -55 -36 -26 7 -35 26 -12 26 8 0 22
9 32 20 25 28 35 25 35 -10z m-10 -70 c0 -6 -11 -22 -25 -35 -28 -29 -76 -33
-99 -9 -23 22 -20 29 17 41 43 14 107 16 107 3z m-162 -35 c11 -23 10 -25 -15
-25 -26 0 -63 25 -63 42 0 4 15 8 33 8 26 0 36 -6 45 -25z"/>
<path d="M497 594 c-15 -15 -6 -24 24 -24 20 0 29 4 27 13 -5 14 -40 21 -51
11z"/>
<path d="M581 511 c-7 -5 -11 -13 -8 -18 9 -15 52 -8 52 8 0 17 -25 22 -44 10z"/>
<path d="M386 501 c-4 -5 -3 -12 1 -14 14 -8 53 -2 53 8 1 13 -46 19 -54 6z"/>
</g>
</svg>
