<?xml version="1.0" standalone="no"?>
<!DOCTYPE svg PUBLIC "-//W3C//DTD SVG 20010904//EN"
 "http://www.w3.org/TR/2001/REC-SVG-20010904/DTD/svg10.dtd">
<svg version="1.0" xmlns="http://www.w3.org/2000/svg"
 width="111.000000pt" height="117.000000pt" viewBox="0 0 111.000000 117.000000"
 preserveAspectRatio="xMidYMid meet">
<metadata>
Created by potrace 1.10, written by Peter Selinger 2001-2011
</metadata>
<g transform="translate(0.000000,117.000000) scale(0.100000,-0.100000)"
fill="#000000" stroke="none">
<path d="M206 1059 c-20 -16 -30 -19 -39 -10 -18 18 -65 13 -77 -8 -6 -13 -10
-164 -10 -424 0 -379 1 -405 18 -420 17 -15 61 -17 421 -17 258 0 409 4 422
10 21 12 26 59 8 77 -9 9 -6 19 10 39 24 31 26 68 6 104 -8 14 -14 40 -15 59
0 47 -55 101 -102 101 -23 0 -42 8 -57 24 -21 23 -22 28 -14 116 15 155 -14
183 -173 168 -82 -8 -88 -7 -111 13 -15 15 -23 34 -23 57 0 47 -54 102 -102
102 -18 1 -44 7 -58 15 -36 20 -73 18 -104 -6z m87 -49 c18 -15 34 -19 52 -14
28 7 75 -18 75 -40 0 -10 -16 -13 -64 -11 -55 2 -70 7 -101 33 -34 27 -36 31
-18 41 25 14 27 14 56 -9z m232 -390 l390 -390 -393 0 -392 0 0 390 c0 215 1
390 3 390 1 0 178 -175 392 -390z m-109 261 c24 -11 50 -33 61 -52 23 -37 39
-109 25 -109 -13 0 -46 41 -60 73 -7 16 -26 34 -45 42 -17 7 -43 25 -56 39
l-24 26 29 0 c16 0 47 -9 70 -19z m302 -63 c13 -13 15 -61 6 -131 -6 -45 -6
-45 -38 -36 -17 5 -50 6 -74 3 -58 -9 -73 5 -60 55 6 25 6 51 0 74 l-10 36 36
4 c80 8 129 6 140 -5z m8 -238 c18 -12 42 -40 53 -64 21 -43 28 -86 13 -86
-13 0 -47 41 -60 73 -7 16 -26 34 -45 42 -18 7 -41 23 -51 34 -19 21 -19 21
19 21 21 0 52 -9 71 -20z m159 -80 c12 -13 16 -29 12 -52 -3 -24 1 -39 15 -55
13 -14 18 -28 13 -42 -9 -29 -20 -26 -55 12 -24 26 -28 38 -24 67 3 19 1 47
-5 63 -9 23 -8 27 8 27 10 0 26 -9 36 -20z"/>
<path d="M263 743 c-19 -7 -16 -50 4 -57 24 -10 51 20 37 41 -12 19 -23 24
-41 16z"/>
<path d="M427 573 c-4 -3 -7 -17 -7 -30 0 -18 5 -23 25 -23 14 0 28 7 31 15
11 27 -30 58 -49 38z"/>
<path d="M224 536 c-10 -26 4 -48 28 -44 33 4 33 52 0 56 -13 2 -25 -3 -28
-12z"/>
<path d="M591 396 c-16 -20 -3 -46 24 -46 13 0 26 7 29 16 7 19 -10 44 -29 44
-7 0 -18 -6 -24 -14z"/>
<path d="M394 366 c-10 -26 4 -48 28 -44 33 4 33 52 0 56 -13 2 -25 -3 -28
-12z"/>
</g>
</svg>
