<svg version="1.1" id="Layer_1" xmlns="http://www.w3.org/2000/svg" xmlns:xlink="http://www.w3.org/1999/xlink" x="0px" y="0px"
	 width="100%" viewBox="0 0 352 288" enable-background="new 0 0 352 288" xml:space="preserve">
<path fill="#000000" opacity="1.000000" stroke="none" 
	d="
M130.547653,29.530571 
	C156.067947,4.338008 197.128693,4.255407 222.069382,29.320692 
	C225.190048,32.456947 228.329300,33.069939 232.337051,32.720375 
	C261.704926,30.158867 287.087891,49.401409 294.853180,76.522087 
	C301.845367,100.942543 291.336029,129.123276 268.776794,143.442337 
	C265.179810,145.725449 264.002380,148.188766 264.030334,152.303940 
	C264.200348,177.295715 264.121857,202.289215 264.109741,227.282150 
	C264.102631,241.990082 254.787506,251.318695 240.088242,251.321930 
	C197.766815,251.331253 155.445374,251.333221 113.123940,251.316101 
	C97.977318,251.309967 88.769112,242.149033 88.758179,227.105774 
	C88.740021,202.112808 88.665993,177.119308 88.827469,152.127380 
	C88.853188,148.146042 87.647575,145.858673 84.127296,143.810669 
	C63.463558,131.789185 52.079468,104.850792 57.121243,81.403328 
	C62.763893,55.161411 79.046295,39.552265 104.698494,33.321178 
	C110.323891,31.954735 116.263580,31.750971 122.020859,32.801167 
	C125.594574,33.453053 128.190857,32.574085 130.547653,29.530571 
M68.828217,85.399551 
	C64.890244,107.325005 77.260658,127.045059 93.827438,135.584991 
	C99.278442,138.394913 101.257881,142.063980 101.214218,147.803238 
	C101.106483,161.966919 101.354103,176.133881 101.182251,190.296158 
	C101.129601,194.635452 102.571136,196.058914 106.947083,196.046066 
	C153.440750,195.909531 199.935013,195.902588 246.428787,196.007278 
	C250.635315,196.016754 251.803085,194.515503 251.836487,190.485382 
	C251.957947,175.836594 252.624573,161.190338 252.613663,146.543488 
	C252.609680,141.205490 254.234299,138.130173 259.161102,135.614090 
	C276.242279,126.890862 286.457001,107.141075 284.577148,87.718353 
	C282.651031,67.817673 268.864868,51.070004 249.660492,45.875736 
	C245.203171,44.670143 240.461319,43.078423 235.182602,45.242126 
	C235.920563,47.167809 236.562332,48.834785 237.198532,50.503883 
	C240.242477,58.489643 242.480087,66.621727 242.232681,75.295677 
	C242.115952,79.388290 240.658188,82.251251 236.210358,82.196922 
	C231.975784,82.145187 230.851730,79.317245 230.620285,75.461029 
	C230.191132,68.310776 228.932327,61.312180 226.088608,54.622547 
	C218.023926,35.650932 195.705765,20.004778 170.523865,23.146923 
	C151.400696,25.533072 137.287949,34.887669 128.221634,51.876755 
	C124.379974,59.075520 122.870125,66.908768 122.337784,74.918808 
	C122.057930,79.129829 120.912666,82.323547 116.139961,82.200401 
	C111.150269,82.071663 110.683983,78.449066 110.618942,74.427048 
	C110.539909,69.539452 111.434967,64.863129 112.442711,60.118320 
	C113.541245,54.946064 116.345825,50.341873 117.598785,45.198677 
	C101.857750,41.859081 73.719414,54.190632 68.828217,85.399551 
M129.500046,207.276871 
	C121.838608,207.273773 114.173775,207.404388 106.517189,207.210129 
	C102.794640,207.115662 100.961388,208.113235 101.162758,212.231064 
	C101.430885,217.714172 101.283195,223.220749 101.214027,228.716003 
	C101.173607,231.927246 102.378571,234.506119 104.604134,236.743561 
	C107.131889,239.284775 110.370575,239.085266 113.503532,239.094742 
	C155.803970,239.222534 198.104507,239.323944 240.405060,239.396317 
	C247.458145,239.408386 251.629501,235.278671 251.732437,228.296875 
	C251.798721,223.800934 251.747910,219.303162 251.737656,214.806229 
	C251.720490,207.275208 251.716492,207.269562 244.422699,207.269714 
	C206.448486,207.270462 168.474258,207.274353 129.500046,207.276871 
z"/>
<path fill="#000000" opacity="1.000000" stroke="none" 
	d="
M112.932129,136.793839 
	C111.362724,132.667603 110.265587,128.857620 110.717865,124.761658 
	C111.067352,121.596680 112.973015,119.989708 115.979424,119.805946 
	C118.940208,119.624977 121.502068,120.880127 121.978844,123.922554 
	C123.800934,135.549805 130.375153,144.727478 136.920349,153.962036 
	C139.958267,158.248184 138.769150,162.587875 134.300873,163.862503 
	C130.974030,164.811523 128.908691,162.946381 127.096451,160.640091 
	C121.420509,153.416885 116.593651,145.678574 112.932129,136.793839 
z"/>
<path fill="#000000" opacity="1.000000" stroke="none" 
	d="
M231.970154,151.884506 
	C229.517670,155.273392 227.395599,158.466919 224.974792,161.415161 
	C222.556091,164.360855 219.376953,165.372833 216.268799,162.659607 
	C213.285507,160.055389 213.530319,156.975769 215.957474,153.830490 
	C222.905060,144.827316 228.990967,135.398102 230.907486,123.832352 
	C231.415726,120.765190 233.952606,119.566315 236.936432,119.833511 
	C239.951309,120.103477 241.809616,121.803741 242.136520,124.913483 
	C242.719788,130.461807 240.682632,135.400131 238.329956,140.195786 
	C236.430923,144.066803 234.234268,147.791840 231.970154,151.884506 
z"/>
<path fill="#000000" opacity="1.000000" stroke="none" 
	d="
M181.611572,122.923820 
	C182.898987,135.098236 182.281097,146.913010 182.215546,158.716843 
	C182.196976,162.060394 179.868042,163.863541 176.687042,164.038544 
	C173.473190,164.215363 171.273438,162.528366 170.616516,159.288055 
	C170.288391,157.669495 170.144058,155.983078 170.161987,154.330032 
	C170.261200,145.174973 170.470291,136.021057 170.564224,126.865959 
	C170.593323,124.031456 171.022232,121.427315 173.972748,120.265099 
	C176.950546,119.092140 179.523865,119.826256 181.611572,122.923820 
z"/>
</svg>